<svg xmlns="http://www.w3.org/2000/svg" version="1.1" xmlns:xlink="http://www.w3.org/1999/xlink" xmlns:svgjs="http://svgjs.dev/svgjs" width="1000" height="234" viewBox="0 0 1000 234"><g transform="matrix(1,0,0,1,-0.6060606060606233,0.6184619863773406)"><svg viewBox="0 0 396 93" data-background-color="#000000" preserveAspectRatio="xMidYMid meet" height="234" width="1000" xmlns="http://www.w3.org/2000/svg" xmlns:xlink="http://www.w3.org/1999/xlink"><g id="tight-bounds" transform="matrix(1,0,0,1,0.2400000000000091,-0.2457989945858685)"><svg viewBox="0 0 395.52 93.49159798917177" height="93.49159798917177" width="395.52"><g><svg viewBox="0 0 563.5180095299055 133.20236449895881" height="93.49159798917177" width="395.52"><g transform="matrix(1,0,0,1,167.99800952990552,29.7532550661288)"><svg viewBox="0 0 395.52 73.69585436670121" height="73.69585436670121" width="395.52"><g id="textblocktransform"><svg viewBox="0 0 395.52 73.69585436670121" height="73.69585436670121" width="395.52" id="textblock"><g><svg viewBox="0 0 395.52 73.69585436670121" height="73.69585436670121" width="395.52"><g transform="matrix(1,0,0,1,0,0)"><svg width="395.52" viewBox="3.440000057220459 -36.25 197.1880669593811 36.7400016784668" height="73.69585436670121" data-palette-color="#ffffff"><g transform="matrix(1,0,0,1,0,0)"><g><svg width="11.286966389629319" viewBox="3.1600000858306885 -36.86000061035156 68.44999694824219 37.36000061035156" height="6.160253510708194" data-palette-color="#ffffff" id="scriptelement" x="187.0034897656307" y="-31.34903668653696"><path d="M16.05 0L16.05 0 3.16 0 3.16-36.36 16.16-36.36Q21.64-36.36 25.6-34.19 29.56-32.01 31.7-27.95 33.84-23.88 33.84-18.22L33.84-18.22Q33.84-12.54 31.7-8.45 29.56-4.37 25.58-2.18 21.59 0 16.05 0ZM10.85-29.78L10.85-6.59 15.73-6.59Q19.14-6.59 21.48-7.8 23.81-9.02 24.99-11.59 26.17-14.15 26.17-18.22L26.17-18.22Q26.17-22.25 24.99-24.8 23.81-27.36 21.48-28.57 19.16-29.78 15.75-29.78L15.75-29.78 10.85-29.78ZM71.61-23.63L71.61-23.63 63.83-23.63Q63.62-25.14 62.96-26.32 62.3-27.5 61.27-28.34 60.24-29.17 58.9-29.62 57.56-30.06 56-30.06L56-30.06Q53.18-30.06 51.08-28.67 48.99-27.27 47.83-24.62 46.68-21.96 46.68-18.18L46.68-18.18Q46.68-14.29 47.84-11.65 49-9 51.1-7.65 53.19-6.3 55.95-6.3L55.95-6.3Q57.49-6.3 58.81-6.71 60.14-7.12 61.17-7.91 62.2-8.7 62.88-9.84 63.56-10.97 63.83-12.43L63.83-12.43 71.61-12.39Q71.3-9.89 70.11-7.57 68.91-5.26 66.89-3.44 64.88-1.62 62.1-0.56 59.32 0.5 55.82 0.5L55.82 0.5Q50.96 0.5 47.13-1.7 43.3-3.91 41.09-8.08 38.88-12.25 38.88-18.18L38.88-18.18Q38.88-24.13 41.12-28.3 43.36-32.48 47.19-34.67 51.03-36.86 55.82-36.86L55.82-36.86Q58.98-36.86 61.69-35.97 64.4-35.09 66.49-33.39 68.59-31.69 69.91-29.24 71.23-26.79 71.61-23.63Z" opacity="1" transform="matrix(1,0,0,1,0,0)" fill="#ffffff" class="undefined-123" data-fill-palette-color="primary" id="p-123"></path></svg></g></g><path d="M184.666-28.269C184.666-32.677 188.239-36.25 192.647-36.25 197.055-36.25 200.628-32.677 200.628-28.269 200.628-23.861 197.055-20.288 192.647-20.288 188.239-20.288 184.666-23.861 184.666-28.269ZM192.647-20.688C196.834-20.688 200.228-24.082 200.228-28.269 200.228-32.456 196.834-35.85 192.647-35.85 188.46-35.85 185.066-32.456 185.066-28.269 185.066-24.082 188.46-20.688 192.647-20.688Z" fill="#ffffff" id="scriptcircle" data-fill-palette-color="primary"></path><g class="wordmark-text-0" data-fill-palette-color="primary" id="text-0"><path d="M23.17-30.44L19.68 0 11.06 0 14.53-30.44 3.44-30.44 4.98-35.77 35.01-35.77 33.45-30.44 23.17-30.44ZM45.43 0L36.79 0 40.87-35.77 49.51-35.77 47.85-21.14 62.64-21.14 64.3-35.77 72.95-35.77 68.87 0 60.23 0 62.03-15.82 47.21-15.82 45.43 0ZM100.36 0L77.73 0 81.81-35.77 105.17-35.77 103.61-30.44 89.84-30.44 88.74-20.95 100.73-20.95 99.31-15.99 88.18-15.99 86.96-5.32 101.92-5.32 100.36 0ZM108.73 0L112.81-35.77 126.82-35.77Q131.17-35.77 134.45-34.67 137.74-33.57 139.95-31.59 142.16-29.61 143.28-26.84 144.4-24.07 144.4-20.73L144.4-20.73Q144.4-18.41 143.85-15.97 143.3-13.53 142.13-11.22 140.96-8.91 139.14-6.86 137.32-4.81 134.79-3.28 132.27-1.76 129.01-0.87 125.75 0.02 121.67 0.02L121.67 0.02Q118.4 0.02 115.2 0.01 112 0 108.73 0L108.73 0ZM120.84-30.44L117.96-5.32 123.21-5.32Q126.29-5.32 128.58-6.53 130.88-7.74 132.39-9.77 133.9-11.79 134.66-14.47 135.42-17.14 135.42-20.04L135.42-20.04Q135.42-25.27 132.9-27.86 130.39-30.44 125.51-30.44L125.51-30.44 120.84-30.44ZM177.6-7.08L177.6-3.39Q176.33-2.42 174.78-1.7 173.23-0.98 171.55-0.49 169.86 0 168.14 0.24 166.42 0.49 164.83 0.49L164.83 0.49Q161.39 0.49 158.55-0.62 155.7-1.73 153.65-3.8 151.6-5.86 150.47-8.78 149.33-11.69 149.33-15.33L149.33-15.33Q149.33-18.65 150.25-21.48 151.16-24.32 152.76-26.65 154.36-28.98 156.55-30.77 158.73-32.57 161.26-33.78 163.78-34.99 166.55-35.62 169.33-36.25 172.11-36.25L172.11-36.25Q172.96-36.25 174.06-36.19 175.16-36.13 176.38-35.99 177.6-35.84 178.88-35.6 180.17-35.35 181.36-35.01L181.36-35.01 179.43-29.25 178.92-29.05Q176.8-30.13 174.81-30.53 172.82-30.93 171.28-30.93L171.28-30.93Q168.5-30.93 166.14-29.87 163.78-28.81 162.06-26.92 160.34-25.02 159.38-22.44 158.41-19.85 158.41-16.8L158.41-16.8Q158.41-14.18 159.15-12.04 159.88-9.89 161.31-8.37 162.73-6.86 164.83-6.03 166.93-5.2 169.69-5.2L169.69-5.2Q171.87-5.2 173.82-5.71 175.77-6.23 177.6-7.08L177.6-7.08Z" fill="#ffffff" data-fill-palette-color="primary"></path></g></svg></g></svg></g></svg></g></svg></g><g><svg viewBox="0 0 133.20236449895881 133.20236449895881" height="133.20236449895881" width="133.20236449895881"><g><svg></svg></g><g id="icon-0"><svg viewBox="0 0 133.20236449895881 133.20236449895881" height="133.20236449895881" width="133.20236449895881"><g><path d="M0 66.601c0-36.783 29.818-66.601 66.601-66.601 36.783 0 66.601 29.818 66.601 66.601 0 36.783-29.818 66.601-66.601 66.601-36.783 0-66.601-29.818-66.601-66.601zM66.601 126.556c33.112 0 59.955-26.843 59.955-59.955 0-33.112-26.843-59.955-59.955-59.955-33.112 0-59.955 26.843-59.955 59.955 0 33.112 26.843 59.955 59.955 59.955z" data-fill-palette-color="accent" fill="#ffffff" stroke="transparent"></path></g><g transform="matrix(1,0,0,1,29.322425385027017,36.61910151745425)"><svg viewBox="0 0 74.55751372890478 59.96416146405032" height="59.96416146405032" width="74.55751372890478"><g><svg xmlns="http://www.w3.org/2000/svg" xmlns:xlink="http://www.w3.org/1999/xlink" version="1.1" x="0" y="0" viewBox="0 9.78600025177002 100.0003433227539 80.42699432373047" enable-background="new 0 0 100 100" xml:space="preserve" width="74.55751372890478" height="59.96416146405032" class="icon-s-0" data-fill-palette-color="accent" id="s-0"><path d="M49.942 52.994c13.552-0.488 27.103-0.977 40.653-1.465-2.527-4.177-3.159-7.831-7.989-8.461-7.229-0.94-14.458-1.883-21.688-2.826-14.023-1.827-28.05-3.654-42.075-5.48C20.101 36.792 39.724 53.361 49.942 52.994z" fill="#ffffff" data-fill-palette-color="accent"></path><path d="M0 9.786c4.391 7.257 26.615 23.072 32.953 23.886 17.33 2.231 34.657 4.46 51.986 6.688-3.393-5.607-4.18-9.35-10.312-10.959-8.904-2.341-17.812-4.683-26.717-7.023C31.94 18.182 15.97 13.984 0 9.786z" fill="#ffffff" data-fill-palette-color="accent"></path><path d="M63.108 66.207c10.413-2.219 20.826-4.439 31.241-6.66-2.028-3.346-2.034-5.359-5.827-5.189-6.158 0.273-12.314 0.549-18.471 0.822-11.343 0.506-22.686 1.014-34.028 1.518C37.298 58.064 54.94 67.947 63.108 66.207z" fill="#ffffff" data-fill-palette-color="accent"></path><path d="M87.682 90.213c5.725-3.719 7.262-7.721 10.519-13.807 3.651-6.824 1.257-7.844-2.821-14.596-0.417-0.688-5.842 0.232-6.453 0.904-0.745 0.818-0.248 5.455-0.294 6.496C88.315 76.211 87.998 83.213 87.682 90.213z" fill="#ffffff" data-fill-palette-color="accent"></path><path d="M86.35 63.447c-3.795 0.809-8.604 0.191-9.572 4.229-1.373 5.736-2.746 11.475-4.12 17.211C81.904 82.678 86.028 71.582 86.35 63.447z" fill="#ffffff" data-fill-palette-color="accent"></path><path d="M74.666 66.121c-9.148 1.953-8.956 4.611-12.879 13.18C68.007 78.711 73.811 71.941 74.666 66.121z" fill="#ffffff" data-fill-palette-color="accent"></path></svg></g></svg></g></svg></g></svg></g></svg></g><defs></defs></svg><rect width="395.52" height="93.49159798917177" fill="none" stroke="none" visibility="hidden"></rect></g></svg></g></svg>